#!OML:ASF H:\BreakDance\Project 1\Capture day 1\Session 1\Male.ASF
:FULLY-SPECIFIED
:DEGREES
121
root 18.4477 12.2369 -7.31865 -1.46771 135.717 -190.396
lowerback 1.79943 10.241 -0.0648234
upperback -1.23015 14.1253 -6.4217
thorax -0.646519 7.04884 -6.76331
lowerneck -7.97855 2.87788 4.85876
upperneck -5.43436 3.33644 3.88211
head -0.357484 1.51841 0.461085
rclavicle -9.48948e-014 9.22361e-014
rhumerus -10.3333 -3.90725 -83.7876
rradius 106.379
rwrist -2.42158
rhand -55.1694 -44.1447
rfingers 7.12502
rthumb -27.5422 287.85
lclavicle -9.48948e-014 9.22361e-014
lhumerus 41.733 23.7812 61.7382
lradius 114.405
lwrist 2.2437
lhand -54.3129 -86.5791
lfingers 7.12502
lthumb -26.7228 -58.4461
rfemur -0.0894598 -43.464 20.4342
rtibia 93.0802
rfoot 52.007 11.5111
rtoes 35.2954
lfemur -74.3279 -26.3742 -7.06027
ltibia 105.903
lfoot -16.1348 0.775687
ltoes -39.559
122
root 18.4475 12.2325 -7.31326 -1.68148 137.874 -190.646
lowerback 2.12498 10.3024 -0.0577647
upperback -1.16681 14.2045 -6.34159
thorax -0.769137 7.08655 -6.74623
lowerneck -8.12036 3.5072 5.18197
upperneck -5.28293 4.08382 3.7059
head -0.277292 1.87518 0.376223
rclavicle -1.88746e-013 3.49861e-014
rhumerus -9.73377 -3.26397 -84.7536
rradius 105.802
rwrist -2.27523
rhand -55.0769 -42.663
rfingers 7.12502
rthumb -27.4537 289.318
lclavicle -1.88746e-013 3.49861e-014
lhumerus 42.1399 23.4614 62.105
lradius 114.609
lwrist 1.74982
lhand -54.1538 -86.8181
lfingers 7.12502
lthumb -26.5705 -58.6619
rfemur -2.54417 -42.5549 22.7455
rtibia 92.8424
rfoot 52.1165 10.8667
rtoes 36.1373
lfemur -73.23 -27.2579 -8.47237
ltibia 106.7
lfoot -15.5161 0.486209
ltoes -38.8663
123
root 18.4442 12.2272 -7.30719 -1.86877 139.912 -190.857
lowerback 2.40586 10.3676 -0.0575665
upperback -1.08703 14.2911 -6.23983
thorax -0.85663 7.12893 -6.693
lowerneck -8.25611 4.21051 5.61207
upperneck -5.06916 4.91469 3.43425
head -0.169157 2.27249 0.250591
rclavicle 1.23992e-014 2.66371e-014
rhumerus -9.01988 -2.63949 -85.7522
rradius 105.186
rwrist -2.17694
rhand -54.9699 -41.5041
rfingers 7.12502
rthumb -27.3514 290.46
lclavicle 1.23992e-014 2.66371e-014
lhumerus 42.5345 23.1959 62.4497
lradius 114.794
lwrist 1.39516
lhand -53.9243 -86.9061
lfingers 7.12502
lthumb -26.3508 -58.7168
rfemur -4.97294 -41.3961 24.8643
rtibia 92.429
rfoot 52.2502 10.469
rtoes 36.5905
lfemur -71.9265 -27.753 -9.86267
ltibia 107.473
lfoot -14.8723 0.282019
ltoes -38.3224
124
root 18.438 12.2222 -7.30122 -2.01238 141.869 -191.019
lowerback 2.66949 10.4233 -0.0334172
upperback -1.01804 14.3637 -6.13367
thorax -0.943068 7.16375 -6.64581
lowerneck -8.35711 4.96294 6.11521
upperneck -4.80762 5.80562 3.08097
head -0.0394388 2.69932 0.0929811
rclavicle -9.54539e-014 -2.78299e-014
rhumerus -8.24481 -2.03637 -86.795
rradius 104.566
rwrist -2.14855
rhand -54.8684 -40.8135
rfingers 7.12502
rthumb -27.2543 291.136
lclavicle -9.54539e-014 -2.78299e-014
lhumerus 42.8564 22.9754 62.6958
lradius 114.95
lwrist 1.15141
lhand -53.646 -86.8786
lfingers 7.12502
lthumb -26.0844 -58.6498
rfemur -7.33133 -40.0478 26.7581
rtibia 91.8271
rfoot 52.3056 10.6351
rtoes 36.1661
lfemur -70.4894 -27.8795 -11.1682
ltibia 108.228
lfoot -14.2315 0.105282
ltoes -37.9749
125
root 18.4297 12.2192 -7.29639 -2.0888 143.795 -191.112
lowerback 2.90858 10.4496 0.0398975
upperback -0.964748 14.3942 -6.02102
thorax -1.02719 7.17685 -6.61394
lowerneck -8.42932 5.73633 6.63464
upperneck -4.50375 6.72802 2.65207
head 0.112059 3.14274 -0.0863667
rclavicle -1.25383e-013 -9.93923e-016
rhumerus -7.42819 -1.42934 -87.8512
rradius 103.966
rwrist -2.20205
rhand -54.8085 -40.5253
rfingers 7.12502
rthumb -27.197 291.415
lclavicle -1.25383e-013 -9.93923e-016
lhumerus 43.0786 22.8072 62.8269
lradius 115.041
lwrist 0.972375
lhand -53.2896 -86.6252
lfingers 7.12502
lthumb -25.7431 -58.3465
rfemur -9.59019 -38.5884 28.4207
rtibia 91.019
rfoot 52.2121 11.3617
rtoes 34.852
lfemur -69.0101 -27.6867 -12.3147
ltibia 108.972
lfoot -13.6131 -0.0960285
ltoes -37.9526
126
root 18.4202 12.2188 -7.29325 -2.09325 145.734 -191.139
lowerback 3.12943 10.4391 0.177088
upperback -0.933461 14.3727 -5.90909
thorax -1.11466 7.16285 -6.61358
lowerneck -8.47731 6.48329 7.13841
upperneck -4.17308 7.62736 2.17379
head 0.279801 3.57665 -0.276078
rclavicle 1.88299e-013 -6.09275e-014
rhumerus -6.59443 -0.825314 -88.8562
rradius 103.415
rwrist -2.37716
rhand -54.7827 -40.4742
rfingers 7.12502
rthumb -27.1723 291.462
lclavicle 1.88299e-013 -6.09275e-014
lhumerus 43.2261 22.6299 62.8708
lradius 115.008
lwrist 0.794814
lhand -52.9637 -86.3152
lfingers 7.12502
lthumb -25.431 -57.9917
rfemur -11.74 -37.0803 29.8552
rtibia 89.9852
rfoot 51.9905 12.1897
rtoes 33.3478
lfemur -67.563 -27.2282 -13.2518
ltibia 109.702
lfoot -13.034 -0.373916
ltoes -38.3637
